HIERARCHY
ROOT Hips
{
    OFFSET 0.000000 0.000000 0.000000
    CHANNELS 6 Xposition Yposition Zposition Zrotation Xrotation Yrotation
    JOINT Spine
    {
        OFFSET -0.000000 8.249566 0.000000
        CHANNELS 3 Zrotation Xrotation Yrotation
        JOINT Spine1
        {
            OFFSET -0.000000 22.751984 0.000000
            CHANNELS 3 Zrotation Xrotation Yrotation
            JOINT Neck
            {
                OFFSET -0.000000 22.658548 2.059868
                CHANNELS 3 Zrotation Xrotation Yrotation
                JOINT Head
                {
                    OFFSET -0.000000 14.084625 -2.012089
                    CHANNELS 3 Zrotation Xrotation Yrotation
                    End Site
                    {
                        OFFSET -0.000000 25.151115 0.000000
                    }
                }
            }
            JOINT LeftShoulder
            {
                OFFSET 4.014710 20.418900 0.142539
                CHANNELS 3 Zrotation Xrotation Yrotation
                JOINT LeftArm
                {
                    OFFSET 12.409162 0.000000 0.000000
                    CHANNELS 3 Zrotation Xrotation Yrotation
                    JOINT LeftForeArm
                    {
                        OFFSET 32.111938 0.000000 0.000000
                        CHANNELS 3 Zrotation Xrotation Yrotation
                        JOINT LeftHand
                        {
                            OFFSET 25.320286 0.000000 0.000000
                            CHANNELS 3 Zrotation Xrotation Yrotation
                            End Site
                            {
                                OFFSET 15.090670 0.000000 0.000000
                            }
                        }
                    }
                }
            }
            JOINT RightShoulder
            {
                OFFSET -4.019371 20.418900 0.142539
                CHANNELS 3 Zrotation Xrotation Yrotation
                JOINT RightArm
                {
                    OFFSET -12.409162 0.000000 0.000000
                    CHANNELS 3 Zrotation Xrotation Yrotation
                    JOINT RightForeArm
                    {
                        OFFSET -32.111938 0.000000 0.000000
                        CHANNELS 3 Zrotation Xrotation Yrotation
                        JOINT RightHand
                        {
                            OFFSET -25.320286 0.000000 0.000000
                            CHANNELS 3 Zrotation Xrotation Yrotation
                            End Site
                            {
                                OFFSET -15.090670 0.000000 0.000000
                            }
                        }
                    }
                }
            }
        }
    }
    JOINT LeftUpLeg
    {
        OFFSET 10.060447 0.000000 0.000000
        CHANNELS 3 Zrotation Xrotation Yrotation
        JOINT LeftLeg
        {
            OFFSET -0.000000 -49.683781 0.000000
            CHANNELS 3 Zrotation Xrotation Yrotation
            JOINT LeftFoot
            {
                OFFSET -0.000000 -37.035061 0.000000
                CHANNELS 3 Zrotation Xrotation Yrotation
                JOINT LeftToeBase
                {
                    OFFSET -0.000000 -6.539289 15.090670
                    CHANNELS 3 Zrotation Xrotation Yrotation
                    End Site
                    {
                        OFFSET -0.000000 0.000000 4.024179
                    }
                }
            }
        }
    }
    JOINT RightUpLeg
    {
        OFFSET -10.060447 0.000000 0.000000
        CHANNELS 3 Zrotation Xrotation Yrotation
        JOINT RightLeg
        {
            OFFSET -0.000000 -49.683781 0.000000
            CHANNELS 3 Zrotation Xrotation Yrotation
            JOINT RightFoot
            {
                OFFSET -0.000000 -37.035061 0.000000
                CHANNELS 3 Zrotation Xrotation Yrotation
                JOINT RightToeBase
                {
                    OFFSET -0.000000 -6.539289 15.090670
                    CHANNELS 3 Zrotation Xrotation Yrotation
                    End Site
                    {
                        OFFSET -0.000000 0.000000 4.024179
                    }
                }
            }
        }
    }
}
MOTION
Frames:    4
Frame Time:    0.008333
-29.632408    97.109642    98.738045    -1.253595    -0.689258    -178.135666    -0.412317    5.464136    0.206041    -0.507747    -3.069672    0.172829    4.892462    -1.014585    3.168270    -3.355123    -1.839330    1.993669    19.331383    -2.663079    -2.800996    -27.159451    1.685830    0.390648    1.702622    2.702740    -1.622889    8.864564    2.063977    -8.543314    -18.488525    -1.066470    -9.601414    26.317570    -4.182707    7.008191    -0.508847    -11.307874    -2.644016    6.269745    -11.903297    -10.851460    1.935575    -3.202393    -0.696699    -1.380838    9.875357    0.641556    0.274206    -5.931880    2.646802    0.000000    0.000000    0.000000    -5.123257    -3.478019    -5.699460    1.198465    10.906593    -1.884300    -0.799827    -8.578784    -6.994522    0.000000    0.000000    0.000000    
-29.636845    97.109436    98.740990    -1.260685    -0.688836    -178.133072    -0.423818    5.469891    0.208699    -0.510653    -3.075795    0.174739    4.738373    -1.003933    3.404852    -3.020555    -1.724829    2.320760    19.347876    -2.598425    -2.913780    -27.155180    1.649514    0.460967    1.687276    2.726307    -1.611882    8.927939    2.077990    -8.599550    -18.483482    -1.051339    -9.599481    26.261337    -4.150157    7.003169    -0.491749    -11.289556    -2.676464    6.458124    -11.901395    -10.834696    1.927260    -3.204161    -0.712293    -1.390965    9.872025    0.650169    0.289466    -5.929539    2.669209    0.000000    0.000000    0.000000    -5.132800    -3.485322    -5.699364    1.205235    11.032232    -0.860898    -1.001788    -8.746724    -8.090472    0.000000    0.000000    0.000000    
-29.646400    97.107063    98.754326    -1.258376    -0.672713    -178.103821    -0.410579    5.524608    0.194244    -0.515654    -3.116798    0.160721    4.789479    -0.992652    3.646077    -3.064156    -1.616219    2.560295    19.348986    -2.603325    -2.943930    -27.149521    1.684548    0.466669    1.682659    2.732000    -1.573831    8.947067    2.078662    -8.637274    -18.494932    -1.047362    -9.598925    26.213663    -4.132911    7.007402    -0.501900    -11.218501    -2.736950    6.775501    -11.855859    -10.754595    1.914722    -3.213676    -0.733302    -1.373118    9.857009    1.038129    0.248018    -5.863880    2.310028    0.000000    0.000000    0.000000    -5.140144    -3.482987    -5.748072    1.201488    10.945111    -1.834637    -0.803965    -8.587739    -7.032752    0.000000    0.000000    0.000000    
-29.646704    97.115746    98.744141    -1.277878    -0.684191    -178.109833    -0.465623    5.494118    0.202568    -0.464707    -3.118557    0.167826    5.077613    -0.931008    3.912714    -3.566558    -1.495973    2.720171    19.333364    -2.506010    -2.972885    -27.135437    1.626678    0.421986    1.691703    2.713955    -1.548969    8.923016    2.057455    -8.697753    -18.518240    -1.023218    -9.584362    26.154831    -4.068798    6.999787    -0.455716    -11.158436    -2.776913    6.296166    -11.752045    -10.779271    1.894432    -3.207754    -0.715174    -1.374851    9.835360    1.051042    0.251757    -5.829364    2.283648    0.000000    0.000000    0.000000    -5.155503    -3.481951    -5.727116    1.189458    10.925166    -1.885613    -0.787974    -8.558583    -6.991739    0.000000    0.000000    0.000000    
